<?xml version="1.0" encoding="UTF-8" standalone="no"?>
<svg
   width="300"
   height="300"
   viewBox="0 0 300 300"
   preserveAspectRatio="xMidYMid"
   version="1.1"
   id="svg3"
   xmlns="http://www.w3.org/2000/svg"
   xmlns:svg="http://www.w3.org/2000/svg">
  <defs
     id="defs3" />
  <g
     id="layer1"
     transform="translate(0.13101196,0.13101196)">
    <circle
       style="fill:#ffffff;fill-opacity:1"
       id="path1"
       cy="149.86899"
       cx="149.86899"
       r="150" />
  </g>
  <g
     id="layer2"
     transform="translate(0.13101196,0.13101196)">
    <path
       id="path13"
       d="M 87,87 55.5,150 H 24 l 63,31.5 V 150 Z"
       style="fill:#e57000;fill-opacity:1" />
    <path
       id="path12"
       d="m 213,118.5 v 31.5 63 l 31.5,-63 H 276 Z"
       style="fill:#e57000;fill-opacity:1" />
    <path
       id="path9"
       d="m 87,213 63,31.5 V 276 l 31.5,-63 H 150 Z" />
    <path
       id="path7"
       d="M 150,24 118.5,87 H 150 213 L 150,55.5 Z" />
    <path
       style="fill:#000000;fill-opacity:1"
       d="M 55.5,213 87,244.5 55.5,276 24,244.5 Z"
       id="path16" />
    <path
       style="fill:#e57000;fill-opacity:1"
       d="M 213,244.5 244.5,213 276,244.5 244.5,276 Z"
       id="path15" />
    <path
       style="fill:#000000;fill-opacity:1"
       d="M 244.5,87 213,55.5 244.5,24 276,55.5 Z"
       id="path14" />
    <path
       style="fill:#e57000;fill-opacity:1"
       d="M 87,55.5 55.5,87 24,55.5 55.5,24 Z"
       id="path2" />
    <path
       style="fill:#e57000;fill-opacity:1"
       d="m 108,192 v -42 h 42 v 42 z"
       id="path19" />
    <path
       style="fill:#000000;fill-opacity:1"
       d="m 192,192 h -42 v -42 h 42 z"
       id="path18" />
    <path
       style="fill:#e57000;fill-opacity:1"
       d="m 192,108 v 42 h -42 v -42 z"
       id="path17" />
    <path
       style="fill:#000000;fill-opacity:1"
       d="m 108,108 h 42 v 42 h -42 z"
       id="path3" />
  </g>
</svg>
